M48
METRIC,TZ
T01C1.0160
T02C1.5240
%
T01
X+101800Y+12400
X+99260Y+12400
X+96720Y+12400
X+94180Y+12400
X+91640Y+12400
X+91640Y+14940
X+94180Y+14940
X+96720Y+14940
X+99260Y+14940
X+101800Y+14940
X+101800Y+40200
X+99260Y+40200
X+96720Y+40200
X+94180Y+40200
X+91640Y+40200
X+91640Y+42740
X+94180Y+42740
X+96720Y+42740
X+99260Y+42740
X+101800Y+42740
X+62600Y+12400
X+60060Y+12400
X+57520Y+12400
X+54980Y+12400
X+52440Y+12400
X+52440Y+14940
X+54980Y+14940
X+57520Y+14940
X+60060Y+14940
X+62600Y+14940
X+62700Y+40200
X+60160Y+40200
X+57620Y+40200
X+55080Y+40200
X+52540Y+40200
X+52540Y+42740
X+55080Y+42740
X+57620Y+42740
X+60160Y+42740
X+62700Y+42740
X+101800Y+67300
X+99260Y+67300
X+96720Y+67300
X+94180Y+67300
X+91640Y+67300
X+91640Y+69840
X+94180Y+69840
X+96720Y+69840
X+99260Y+69840
X+101800Y+69840
X+62500Y+67500
X+59960Y+67500
X+57420Y+67500
X+54880Y+67500
X+52340Y+67500
X+52340Y+70040
X+54880Y+70040
X+57420Y+70040
X+59960Y+70040
X+62500Y+70040
T02
X+76700Y+31900
X+76700Y+26800
X+76700Y+21700
X+103400Y+32700
X+103400Y+20700
X+105400Y+26700
X+90900Y+20700
X+90900Y+32700
X+76700Y+59700
X+76700Y+54600
X+76700Y+49500
X+103400Y+60500
X+103400Y+48500
X+105400Y+54500
X+90900Y+48500
X+90900Y+60500
X+37500Y+31900
X+37500Y+26800
X+37500Y+21700
X+64200Y+32700
X+64200Y+20700
X+66200Y+26700
X+51700Y+20700
X+51700Y+32700
X+37600Y+59700
X+37600Y+54600
X+37600Y+49500
X+64300Y+60500
X+64300Y+48500
X+66300Y+54500
X+51800Y+48500
X+51800Y+60500
X+76700Y+86800
X+76700Y+81700
X+76700Y+76600
X+103400Y+87600
X+103400Y+75600
X+105400Y+81600
X+90900Y+75600
X+90900Y+87600
X+37400Y+87000
X+37400Y+81900
X+37400Y+76800
X+64100Y+87800
X+64100Y+75800
X+66100Y+81800
X+51600Y+75800
X+51600Y+87800
M30
