G04 PROTEUS RS274X GERBER FILE*
%FSLAX45Y45*%
%MOMM*%
G01*
%ADD10C,0.908000*%
%ADD11R,2.032000X2.032000*%
%ADD12C,3.048000*%
%ADD13C,2.540000*%
D10*
X+9090000Y+3270000D02*
X+8010000Y+3270000D01*
X+7920000Y+3180000D01*
X+7680000Y+3180000D01*
X+9090000Y+2070000D02*
X+8020000Y+2070000D01*
X+7920000Y+2170000D01*
X+7670000Y+2170000D01*
X+7660000Y+2170000D01*
X+10540000Y+2670000D02*
X+9672000Y+2670000D01*
X+7660000Y+2670000D01*
X+9164000Y+1494000D02*
X+9164000Y+1240000D01*
X+9418000Y+1494000D02*
X+9418000Y+1240000D01*
X+9672000Y+1494000D02*
X+9672000Y+1240000D01*
X+9926000Y+1494000D02*
X+9926000Y+1240000D01*
X+10180000Y+1494000D02*
X+10180000Y+1240000D01*
X+9672000Y+2670000D02*
X+9672000Y+1494000D01*
X+9090000Y+2070000D02*
X+9350000Y+2070000D01*
X+9418000Y+2002000D01*
X+9418000Y+1494000D01*
X+7670000Y+3190000D02*
X+7517600Y+3160000D01*
X+7380000Y+3160000D01*
X+7330000Y+3110000D01*
X+7330000Y+1810000D01*
X+7410000Y+1730000D01*
X+9070000Y+1730000D01*
X+9130000Y+1670000D01*
X+9164000Y+1636000D01*
X+9164000Y+1494000D01*
X+10340000Y+2070000D02*
X+9980000Y+2070000D01*
X+9926000Y+2016000D01*
X+9926000Y+1494000D01*
X+10340000Y+3270000D02*
X+10690000Y+3270000D01*
X+10800000Y+3160000D01*
X+10860000Y+3100000D01*
X+10860000Y+1780000D01*
X+10600000Y+1520000D01*
X+10574000Y+1494000D01*
X+10180000Y+1494000D01*
X+9090000Y+6050000D02*
X+8010000Y+6050000D01*
X+7920000Y+5960000D01*
X+7680000Y+5960000D01*
X+9090000Y+4850000D02*
X+8020000Y+4850000D01*
X+7920000Y+4950000D01*
X+7670000Y+4950000D01*
X+7660000Y+4950000D01*
X+10540000Y+5450000D02*
X+9672000Y+5450000D01*
X+7660000Y+5450000D01*
X+9164000Y+4274000D02*
X+9164000Y+4020000D01*
X+9418000Y+4274000D02*
X+9418000Y+4020000D01*
X+9672000Y+4274000D02*
X+9672000Y+4020000D01*
X+9926000Y+4274000D02*
X+9926000Y+4020000D01*
X+10180000Y+4274000D02*
X+10180000Y+4020000D01*
X+9672000Y+5450000D02*
X+9672000Y+4274000D01*
X+9090000Y+4850000D02*
X+9350000Y+4850000D01*
X+9418000Y+4782000D01*
X+9418000Y+4274000D01*
X+7670000Y+5970000D02*
X+7517600Y+5940000D01*
X+7380000Y+5940000D01*
X+7330000Y+5890000D01*
X+7330000Y+4590000D01*
X+7410000Y+4510000D01*
X+9070000Y+4510000D01*
X+9130000Y+4450000D01*
X+9164000Y+4416000D01*
X+9164000Y+4274000D01*
X+10340000Y+4850000D02*
X+9980000Y+4850000D01*
X+9926000Y+4796000D01*
X+9926000Y+4274000D01*
X+10340000Y+6050000D02*
X+10690000Y+6050000D01*
X+10800000Y+5940000D01*
X+10860000Y+5880000D01*
X+10860000Y+4560000D01*
X+10600000Y+4300000D01*
X+10574000Y+4274000D01*
X+10180000Y+4274000D01*
X+5170000Y+3270000D02*
X+4090000Y+3270000D01*
X+4000000Y+3180000D01*
X+3760000Y+3180000D01*
X+5170000Y+2070000D02*
X+4100000Y+2070000D01*
X+4000000Y+2170000D01*
X+3750000Y+2170000D01*
X+3740000Y+2170000D01*
X+6620000Y+2670000D02*
X+5752000Y+2670000D01*
X+3740000Y+2670000D01*
X+5244000Y+1494000D02*
X+5244000Y+1240000D01*
X+5498000Y+1494000D02*
X+5498000Y+1240000D01*
X+5752000Y+1494000D02*
X+5752000Y+1240000D01*
X+6006000Y+1494000D02*
X+6006000Y+1240000D01*
X+6260000Y+1494000D02*
X+6260000Y+1240000D01*
X+5752000Y+2670000D02*
X+5752000Y+1494000D01*
X+5170000Y+2070000D02*
X+5430000Y+2070000D01*
X+5498000Y+2002000D01*
X+5498000Y+1494000D01*
X+3750000Y+3190000D02*
X+3597600Y+3160000D01*
X+3460000Y+3160000D01*
X+3410000Y+3110000D01*
X+3410000Y+1810000D01*
X+3490000Y+1730000D01*
X+5150000Y+1730000D01*
X+5210000Y+1670000D01*
X+5244000Y+1636000D01*
X+5244000Y+1494000D01*
X+6420000Y+2070000D02*
X+6060000Y+2070000D01*
X+6006000Y+2016000D01*
X+6006000Y+1494000D01*
X+6420000Y+3270000D02*
X+6770000Y+3270000D01*
X+6880000Y+3160000D01*
X+6940000Y+3100000D01*
X+6940000Y+1780000D01*
X+6680000Y+1520000D01*
X+6654000Y+1494000D01*
X+6260000Y+1494000D01*
X+5180000Y+6050000D02*
X+4100000Y+6050000D01*
X+4010000Y+5960000D01*
X+3770000Y+5960000D01*
X+5180000Y+4850000D02*
X+4110000Y+4850000D01*
X+4010000Y+4950000D01*
X+3760000Y+4950000D01*
X+3750000Y+4950000D01*
X+6630000Y+5450000D02*
X+5762000Y+5450000D01*
X+3750000Y+5450000D01*
X+5254000Y+4274000D02*
X+5254000Y+4020000D01*
X+5508000Y+4274000D02*
X+5508000Y+4020000D01*
X+5762000Y+4274000D02*
X+5762000Y+4020000D01*
X+6016000Y+4274000D02*
X+6016000Y+4020000D01*
X+6270000Y+4274000D02*
X+6270000Y+4020000D01*
X+5762000Y+5450000D02*
X+5762000Y+4274000D01*
X+5180000Y+4850000D02*
X+5440000Y+4850000D01*
X+5508000Y+4782000D01*
X+5508000Y+4274000D01*
X+3760000Y+5970000D02*
X+3607600Y+5940000D01*
X+3470000Y+5940000D01*
X+3420000Y+5890000D01*
X+3420000Y+4590000D01*
X+3500000Y+4510000D01*
X+5160000Y+4510000D01*
X+5220000Y+4450000D01*
X+5254000Y+4416000D01*
X+5254000Y+4274000D01*
X+6430000Y+4850000D02*
X+6070000Y+4850000D01*
X+6016000Y+4796000D01*
X+6016000Y+4274000D01*
X+6430000Y+6050000D02*
X+6780000Y+6050000D01*
X+6890000Y+5940000D01*
X+6950000Y+5880000D01*
X+6950000Y+4560000D01*
X+6690000Y+4300000D01*
X+6664000Y+4274000D01*
X+6270000Y+4274000D01*
X+9090000Y+8760000D02*
X+8010000Y+8760000D01*
X+7920000Y+8670000D01*
X+7680000Y+8670000D01*
X+9090000Y+7560000D02*
X+8020000Y+7560000D01*
X+7920000Y+7660000D01*
X+7670000Y+7660000D01*
X+7660000Y+7660000D01*
X+10540000Y+8160000D02*
X+9672000Y+8160000D01*
X+7660000Y+8160000D01*
X+9164000Y+6984000D02*
X+9164000Y+6730000D01*
X+9418000Y+6984000D02*
X+9418000Y+6730000D01*
X+9672000Y+6984000D02*
X+9672000Y+6730000D01*
X+9926000Y+6984000D02*
X+9926000Y+6730000D01*
X+10180000Y+6984000D02*
X+10180000Y+6730000D01*
X+9672000Y+8160000D02*
X+9672000Y+6984000D01*
X+9090000Y+7560000D02*
X+9350000Y+7560000D01*
X+9418000Y+7492000D01*
X+9418000Y+6984000D01*
X+7670000Y+8680000D02*
X+7517600Y+8650000D01*
X+7380000Y+8650000D01*
X+7330000Y+8600000D01*
X+7330000Y+7300000D01*
X+7410000Y+7220000D01*
X+9070000Y+7220000D01*
X+9130000Y+7160000D01*
X+9164000Y+7126000D01*
X+9164000Y+6984000D01*
X+10340000Y+7560000D02*
X+9980000Y+7560000D01*
X+9926000Y+7506000D01*
X+9926000Y+6984000D01*
X+10340000Y+8760000D02*
X+10690000Y+8760000D01*
X+10800000Y+8650000D01*
X+10860000Y+8590000D01*
X+10860000Y+7270000D01*
X+10600000Y+7010000D01*
X+10574000Y+6984000D01*
X+10180000Y+6984000D01*
X+5160000Y+8780000D02*
X+4080000Y+8780000D01*
X+3990000Y+8690000D01*
X+3750000Y+8690000D01*
X+5160000Y+7580000D02*
X+4090000Y+7580000D01*
X+3990000Y+7680000D01*
X+3740000Y+7680000D01*
X+3730000Y+7680000D01*
X+6610000Y+8180000D02*
X+5742000Y+8180000D01*
X+3730000Y+8180000D01*
X+5234000Y+7004000D02*
X+5234000Y+6750000D01*
X+5488000Y+7004000D02*
X+5488000Y+6750000D01*
X+5742000Y+7004000D02*
X+5742000Y+6750000D01*
X+5996000Y+7004000D02*
X+5996000Y+6750000D01*
X+6250000Y+7004000D02*
X+6250000Y+6750000D01*
X+5742000Y+8180000D02*
X+5742000Y+7004000D01*
X+5160000Y+7580000D02*
X+5420000Y+7580000D01*
X+5488000Y+7512000D01*
X+5488000Y+7004000D01*
X+3740000Y+8700000D02*
X+3587600Y+8670000D01*
X+3450000Y+8670000D01*
X+3400000Y+8620000D01*
X+3400000Y+7320000D01*
X+3480000Y+7240000D01*
X+5140000Y+7240000D01*
X+5200000Y+7180000D01*
X+5234000Y+7146000D01*
X+5234000Y+7004000D01*
X+6410000Y+7580000D02*
X+6050000Y+7580000D01*
X+5996000Y+7526000D01*
X+5996000Y+7004000D01*
X+6410000Y+8780000D02*
X+6760000Y+8780000D01*
X+6870000Y+8670000D01*
X+6930000Y+8610000D01*
X+6930000Y+7290000D01*
X+6670000Y+7030000D01*
X+6644000Y+7004000D01*
X+6250000Y+7004000D01*
D11*
X+10180000Y+1240000D03*
D12*
X+7670000Y+3190000D03*
X+7670000Y+2680000D03*
D11*
X+9926000Y+1240000D03*
X+9672000Y+1240000D03*
D12*
X+7670000Y+2170000D03*
D11*
X+9418000Y+1240000D03*
X+9164000Y+1240000D03*
X+9164000Y+1494000D03*
X+9418000Y+1494000D03*
X+9672000Y+1494000D03*
X+9926000Y+1494000D03*
X+10180000Y+1494000D03*
D13*
X+10340000Y+3270000D03*
X+10340000Y+2070000D03*
X+10540000Y+2670000D03*
X+9090000Y+2070000D03*
X+9090000Y+3270000D03*
D11*
X+10180000Y+4020000D03*
D12*
X+7670000Y+5970000D03*
X+7670000Y+5460000D03*
D11*
X+9926000Y+4020000D03*
X+9672000Y+4020000D03*
D12*
X+7670000Y+4950000D03*
D11*
X+9418000Y+4020000D03*
X+9164000Y+4020000D03*
X+9164000Y+4274000D03*
X+9418000Y+4274000D03*
X+9672000Y+4274000D03*
X+9926000Y+4274000D03*
X+10180000Y+4274000D03*
D13*
X+10340000Y+6050000D03*
X+10340000Y+4850000D03*
X+10540000Y+5450000D03*
X+9090000Y+4850000D03*
X+9090000Y+6050000D03*
D11*
X+6260000Y+1240000D03*
D12*
X+3750000Y+3190000D03*
X+3750000Y+2680000D03*
D11*
X+6006000Y+1240000D03*
X+5752000Y+1240000D03*
D12*
X+3750000Y+2170000D03*
D11*
X+5498000Y+1240000D03*
X+5244000Y+1240000D03*
X+5244000Y+1494000D03*
X+5498000Y+1494000D03*
X+5752000Y+1494000D03*
X+6006000Y+1494000D03*
X+6260000Y+1494000D03*
D13*
X+6420000Y+3270000D03*
X+6420000Y+2070000D03*
X+6620000Y+2670000D03*
X+5170000Y+2070000D03*
X+5170000Y+3270000D03*
D11*
X+6270000Y+4020000D03*
D12*
X+3760000Y+5970000D03*
X+3760000Y+5460000D03*
D11*
X+6016000Y+4020000D03*
X+5762000Y+4020000D03*
D12*
X+3760000Y+4950000D03*
D11*
X+5508000Y+4020000D03*
X+5254000Y+4020000D03*
X+5254000Y+4274000D03*
X+5508000Y+4274000D03*
X+5762000Y+4274000D03*
X+6016000Y+4274000D03*
X+6270000Y+4274000D03*
D13*
X+6430000Y+6050000D03*
X+6430000Y+4850000D03*
X+6630000Y+5450000D03*
X+5180000Y+4850000D03*
X+5180000Y+6050000D03*
D11*
X+10180000Y+6730000D03*
D12*
X+7670000Y+8680000D03*
X+7670000Y+8170000D03*
D11*
X+9926000Y+6730000D03*
X+9672000Y+6730000D03*
D12*
X+7670000Y+7660000D03*
D11*
X+9418000Y+6730000D03*
X+9164000Y+6730000D03*
X+9164000Y+6984000D03*
X+9418000Y+6984000D03*
X+9672000Y+6984000D03*
X+9926000Y+6984000D03*
X+10180000Y+6984000D03*
D13*
X+10340000Y+8760000D03*
X+10340000Y+7560000D03*
X+10540000Y+8160000D03*
X+9090000Y+7560000D03*
X+9090000Y+8760000D03*
D11*
X+6250000Y+6750000D03*
D12*
X+3740000Y+8700000D03*
X+3740000Y+8190000D03*
D11*
X+5996000Y+6750000D03*
X+5742000Y+6750000D03*
D12*
X+3740000Y+7680000D03*
D11*
X+5488000Y+6750000D03*
X+5234000Y+6750000D03*
X+5234000Y+7004000D03*
X+5488000Y+7004000D03*
X+5742000Y+7004000D03*
X+5996000Y+7004000D03*
X+6250000Y+7004000D03*
D13*
X+6410000Y+8780000D03*
X+6410000Y+7580000D03*
X+6610000Y+8180000D03*
X+5160000Y+7580000D03*
X+5160000Y+8780000D03*
M02*
